<svg width="24" height="21" viewBox="0 0 24 21" fill="none" xmlns="http://www.w3.org/2000/svg">
<path fill-rule="evenodd" clip-rule="evenodd" d="M12 0.25C9.37665 0.25 7.25 2.37665 7.25 5C7.25 7.62335 9.37665 9.75 12 9.75C14.6234 9.75 16.75 7.62335 16.75 5C16.75 2.37665 14.6234 0.25 12 0.25ZM8.75 5C8.75 3.20507 10.2051 1.75 12 1.75C13.7949 1.75 15.25 3.20507 15.25 5C15.25 6.79493 13.7949 8.25 12 8.25C10.2051 8.25 8.75 6.79493 8.75 5Z" fill="black"/>
<path d="M18 2.25C17.5858 2.25 17.25 2.58579 17.25 3C17.25 3.41421 17.5858 3.75 18 3.75C19.3765 3.75 20.25 4.65573 20.25 5.5C20.25 6.34427 19.3765 7.25 18 7.25C17.5858 7.25 17.25 7.58579 17.25 8C17.25 8.41421 17.5858 8.75 18 8.75C19.9372 8.75 21.75 7.41715 21.75 5.5C21.75 3.58285 19.9372 2.25 18 2.25Z" fill="black"/>
<path d="M6.75 3C6.75 2.58579 6.41421 2.25 6 2.25C4.06278 2.25 2.25 3.58285 2.25 5.5C2.25 7.41715 4.06278 8.75 6 8.75C6.41421 8.75 6.75 8.41421 6.75 8C6.75 7.58579 6.41421 7.25 6 7.25C4.62351 7.25 3.75 6.34427 3.75 5.5C3.75 4.65573 4.62351 3.75 6 3.75C6.41421 3.75 6.75 3.41421 6.75 3Z" fill="black"/>
<path fill-rule="evenodd" clip-rule="evenodd" d="M12 11.25C10.2157 11.25 8.56645 11.7308 7.34133 12.5475C6.12146 13.3608 5.25 14.5666 5.25 16C5.25 17.4334 6.12146 18.6392 7.34133 19.4525C8.56645 20.2692 10.2157 20.75 12 20.75C13.7843 20.75 15.4335 20.2692 16.6587 19.4525C17.8785 18.6392 18.75 17.4334 18.75 16C18.75 14.5666 17.8785 13.3608 16.6587 12.5475C15.4335 11.7308 13.7843 11.25 12 11.25ZM6.75 16C6.75 15.2242 7.22169 14.4301 8.17338 13.7956C9.11984 13.1646 10.4706 12.75 12 12.75C13.5294 12.75 14.8802 13.1646 15.8266 13.7956C16.7783 14.4301 17.25 15.2242 17.25 16C17.25 16.7758 16.7783 17.5699 15.8266 18.2044C14.8802 18.8354 13.5294 19.25 12 19.25C10.4706 19.25 9.11984 18.8354 8.17338 18.2044C7.22169 17.5699 6.75 16.7758 6.75 16Z" fill="black"/>
<path d="M19.2674 12.8393C19.3561 12.4347 19.7561 12.1787 20.1607 12.2674C21.1225 12.4783 21.9893 12.8593 22.6328 13.3859C23.2758 13.912 23.75 14.6352 23.75 15.5C23.75 16.3648 23.2758 17.088 22.6328 17.6141C21.9893 18.1407 21.1225 18.5217 20.1607 18.7326C19.7561 18.8213 19.3561 18.5653 19.2674 18.1607C19.1787 17.7561 19.4347 17.3561 19.8393 17.2674C20.6317 17.0936 21.2649 16.7952 21.6829 16.4532C22.1014 16.1108 22.25 15.7763 22.25 15.5C22.25 15.2237 22.1014 14.8892 21.6829 14.5468C21.2649 14.2048 20.6317 13.9064 19.8393 13.7326C19.4347 13.6439 19.1787 13.2439 19.2674 12.8393Z" fill="black"/>
<path d="M3.83935 12.2674C4.24395 12.1787 4.64387 12.4347 4.73259 12.8393C4.82132 13.2439 4.56525 13.6439 4.16065 13.7326C3.36829 13.9064 2.73505 14.2048 2.31712 14.5468C1.89863 14.8892 1.75 15.2237 1.75 15.5C1.75 15.7763 1.89863 16.1108 2.31712 16.4532C2.73505 16.7952 3.36829 17.0936 4.16065 17.2674C4.56525 17.3561 4.82132 17.7561 4.73259 18.1607C4.64387 18.5653 4.24395 18.8213 3.83935 18.7326C2.87746 18.5217 2.0107 18.1407 1.36719 17.6141C0.724248 17.088 0.25 16.3648 0.25 15.5C0.25 14.6352 0.724248 13.912 1.36719 13.3859C2.0107 12.8593 2.87746 12.4783 3.83935 12.2674Z" fill="black"/>
</svg>
