<svg width="20" height="22" viewBox="0 0 20 22" fill="none" xmlns="http://www.w3.org/2000/svg">
<path d="M3.46967 11.5303C3.17678 11.2374 3.17678 10.7626 3.46967 10.4697L5.46967 8.46967C5.76257 8.17678 6.23744 8.17678 6.53033 8.46967C6.82323 8.76256 6.82323 9.2374 6.53033 9.5303L5.81066 10.25H13C13.4142 10.25 13.75 10.5858 13.75 11C13.75 11.4142 13.4142 11.75 13 11.75H5.81066L6.53033 12.4697C6.82323 12.7626 6.82323 13.2374 6.53033 13.5303C6.23744 13.8232 5.76257 13.8232 5.46967 13.5303L3.46967 11.5303Z" fill="black"/>
<path fill-rule="evenodd" clip-rule="evenodd" d="M11.9453 0.250001H13.0551C14.4227 0.249981 15.525 0.249961 16.392 0.366521C17.2921 0.487541 18.05 0.746431 18.6519 1.34835C19.2538 1.95027 19.5127 2.70814 19.6337 3.60825C19.7503 4.47522 19.7502 5.57754 19.7502 6.94513V15.0549C19.7502 16.4225 19.7503 17.5248 19.6337 18.3918C19.5127 19.2919 19.2538 20.0497 18.6519 20.6517C18.05 21.2536 17.2921 21.5125 16.392 21.6335C15.525 21.75 14.4227 21.75 13.0551 21.75H11.9453C10.5778 21.75 9.4754 21.75 8.6085 21.6335C7.70836 21.5125 6.95048 21.2536 6.34857 20.6517C5.94963 20.2527 5.70068 19.7844 5.54305 19.2498C4.59168 19.2486 3.79906 19.2381 3.15689 19.1518C2.39294 19.0491 1.7306 18.8268 1.20191 18.2981C0.673211 17.7694 0.450931 17.1071 0.348221 16.3431C0.249961 15.6123 0.249981 14.6865 0.250001 13.5537V8.44631C0.249981 7.31349 0.249961 6.38774 0.348221 5.65689C0.450931 4.89294 0.673211 4.2306 1.20191 3.7019C1.7306 3.17321 2.39294 2.95093 3.15689 2.84822C3.79906 2.76188 4.59168 2.75142 5.54305 2.75017C5.70068 2.21562 5.94963 1.74729 6.34857 1.34835C6.95048 0.746431 7.70836 0.487541 8.6085 0.366521C9.4754 0.249961 10.5778 0.249981 11.9453 0.250001ZM5.25197 16.0042C5.25555 16.6487 5.2662 17.2293 5.30285 17.7491C4.46836 17.7459 3.848 17.7312 3.35676 17.6652C2.75914 17.5848 2.46611 17.441 2.26257 17.2374C2.05903 17.0339 1.91519 16.7409 1.83484 16.1432C1.7516 15.5241 1.75 14.6997 1.75 13.5V8.5C1.75 7.30029 1.7516 6.47595 1.83484 5.85676C1.91519 5.25914 2.05903 4.9661 2.26257 4.76256C2.46611 4.55902 2.75914 4.41519 3.35676 4.33484C3.848 4.2688 4.46836 4.25415 5.30285 4.25091C5.2662 4.77073 5.25555 5.35129 5.25197 5.99583C5.24966 6.41003 5.58357 6.74768 5.99778 6.74999C6.41199 6.7523 6.74964 6.41838 6.75194 6.00418C6.75803 4.91068 6.78643 4.1356 6.89448 3.54735C6.9986 2.98054 7.16577 2.65246 7.40923 2.40901C7.68599 2.13225 8.0746 1.9518 8.8083 1.85315C9.5637 1.75159 10.5648 1.75 12.0002 1.75H13.0002C14.4356 1.75 15.4367 1.75159 16.1921 1.85315C16.9259 1.9518 17.3144 2.13225 17.5912 2.40901C17.868 2.68577 18.0484 3.07435 18.1471 3.80812C18.2486 4.56347 18.2502 5.56459 18.2502 7V15C18.2502 16.4354 18.2486 17.4365 18.1471 18.1919C18.0484 18.9257 17.868 19.3142 17.5912 19.591C17.3144 19.8678 16.9259 20.0482 16.1921 20.1469C15.4367 20.2484 14.4356 20.25 13.0002 20.25H12.0002C10.5648 20.25 9.5637 20.2484 8.8083 20.1469C8.0746 20.0482 7.68599 19.8678 7.40923 19.591C7.16577 19.3475 6.9986 19.0195 6.89448 18.4527C6.78643 17.8644 6.75803 17.0893 6.75194 15.9958C6.74964 15.5816 6.41199 15.2477 5.99778 15.25C5.58357 15.2523 5.24966 15.59 5.25197 16.0042Z" fill="black"/>
</svg>
