<svg width="26" height="31" viewBox="0 0 26 31" fill="none" xmlns="http://www.w3.org/2000/svg">
<g filter="url(#filter0_d_2_41)">
<path fill-rule="evenodd" clip-rule="evenodd" d="M13 1.25C10.3767 1.25 8.25 3.37665 8.25 6C8.25 8.62335 10.3767 10.75 13 10.75C15.6234 10.75 17.75 8.62335 17.75 6C17.75 3.37665 15.6234 1.25 13 1.25ZM9.75 6C9.75 4.20507 11.2051 2.75 13 2.75C14.7949 2.75 16.25 4.20507 16.25 6C16.25 7.79493 14.7949 9.25 13 9.25C11.2051 9.25 9.75 7.79493 9.75 6Z" fill="white"/>
<path fill-rule="evenodd" clip-rule="evenodd" d="M13 12.25C10.6865 12.25 8.55494 12.7759 6.97546 13.6643C5.4195 14.5396 4.25001 15.8661 4.25001 17.5L4.24995 17.602C4.24882 18.7638 4.2474 20.222 5.52642 21.2635C6.15589 21.7761 7.03649 22.1406 8.22622 22.3815C9.41927 22.6229 10.9742 22.75 13 22.75C15.0258 22.75 16.5808 22.6229 17.7738 22.3815C18.9635 22.1406 19.8441 21.7761 20.4736 21.2635C21.7526 20.222 21.7512 18.7638 21.7501 17.602L21.75 17.5C21.75 15.8661 20.5805 14.5396 19.0246 13.6643C17.4451 12.7759 15.3136 12.25 13 12.25ZM5.75001 17.5C5.75001 16.6487 6.37139 15.7251 7.71085 14.9717C9.02681 14.2315 10.8953 13.75 13 13.75C15.1047 13.75 16.9732 14.2315 18.2892 14.9717C19.6286 15.7251 20.25 16.6487 20.25 17.5C20.25 18.8078 20.2097 19.544 19.5264 20.1004C19.1559 20.4022 18.5365 20.6967 17.4762 20.9113C16.4193 21.1252 14.9742 21.25 13 21.25C11.0258 21.25 9.58075 21.1252 8.5238 20.9113C7.46354 20.6967 6.84413 20.4022 6.4736 20.1004C5.79033 19.544 5.75001 18.8078 5.75001 17.5Z" fill="white"/>
</g>
<defs>
<filter id="filter0_d_2_41" x="-3" y="0" width="32" height="32" filterUnits="userSpaceOnUse" color-interpolation-filters="sRGB">
<feFlood flood-opacity="0" result="BackgroundImageFix"/>
<feColorMatrix in="SourceAlpha" type="matrix" values="0 0 0 0 0 0 0 0 0 0 0 0 0 0 0 0 0 0 127 0" result="hardAlpha"/>
<feOffset dy="4"/>
<feGaussianBlur stdDeviation="2"/>
<feComposite in2="hardAlpha" operator="out"/>
<feColorMatrix type="matrix" values="0 0 0 0 0 0 0 0 0 0 0 0 0 0 0 0 0 0 0.25 0"/>
<feBlend mode="normal" in2="BackgroundImageFix" result="effect1_dropShadow_2_41"/>
<feBlend mode="normal" in="SourceGraphic" in2="effect1_dropShadow_2_41" result="shape"/>
</filter>
</defs>
</svg>
